{"title":"Nieznajomy *2011* [DVDRip.XviD-miguel] [PL]","uid":6606712,"size":735853209,"categoryP":"video","categoryS":"movies","magnet":"?xt=urn:btih:024bfbf44209f6f9a005d88a7dc007703a0ff9c3&amp;dn=Nieznajomy+%2A2011%2A+%5BDVDRip.XviD-miguel%5D+%5BPL%5D&amp;tr=udp%3A%2F%2Ftracker.openbittorrent.com%3A80&amp;tr=udp%3A%2F%2Fopen.demonii.com%3A1337&amp;tr=udp%3A%2F%2Ftracker.coppersurfer.tk%3A6969&amp;tr=udp%3A%2F%2Fexodus.desync.com%3A6969","seeders":0,"leechers":1,"uploader":"miguel1983","files":-1,"time":1313425672,"description":" &lt;a href=&quot;http://img829.imageshack.us/img829/4044/nieznajomy2011.jpg&quot; rel=&quot;nofollow&quot; target=&quot;_NEW&quot;&gt;http://img829.imageshack.us/img829/4044/nieznajomy2011.jpg&lt;/a&gt;\n\nCountry.......: Poland\nGenre.........: Thriller, Drama\nDate release..: 2011 [World]\nDirector......: Damian Galka\nWriters.......: Damian Galka i Krzysztof Micko\nDuration......: 42 min.\nMore..........: http://www.kinomaniak.tv/film/Nieznajomy/39692\nTrailer.......:\n\nPilot :\nA group of friends going to have some fun on the weekend to the hotel 5gwiazdkowego. Alcohol, girls, drugs ... but ... the way one group of people start to feel ill and vomit. They decide to stay at the nearest motel. When entering the village closest to ... are not aware of what will meet them here. Better place for the first home of the exit would ask for a nearby motel. At home, they find no one. Conclude that long one does not live here, a house is covered with dust and dirt. They stop at that house on the night. It seems to them that they are alone ... They have a right ... seems to them ... They are not aware that they will fight for the life of psychopathic owns the property.\n\nCats :\nSebastian Zalewski..........\nDaniel Lewandowski..........\nGrzegorz Andruszkiewicz.....\n\nData Technical :\n!!! SAMPLE !!!\nAudio.....: Polish\nSubtitles.: None\nFormat                           : AVI\nFormat/Info                      : Audio Video Interleave\nFile size                        : 698 MiB\nDuration                         : 41mn 52s\nOverall bit rate                 : 2 330 Kbps\nWriting application              : VirtualDubMod 1.5.10.2 (build 2540/release)\nWriting library                  : VirtualDubMod build 2540/release\nVideo\nID                               : 0\nFormat                           : MPEG-4 Visual\nFormat profile                   : Advanced Simple@L5\nFormat settings, BVOP            : Yes\nFormat settings, QPel            : No\nFormat settings, GMC             : No warppoints\nFormat settings, Matrix          : Custom\nCodec ID                         : XVID\nCodec ID/Hint                    : XviD\nDuration                         : 41mn 52s\nBit rate                         : 1 873 Kbps\nWidth                            : 640 pixels\nHeight                           : 352 pixels\nDisplay aspect ratio             : 16:9\nFrame rate                       : 25.000 fps\nColor space                      : YUV\nChroma subsampling               : 4:2:0\nBit depth                        : 8 bits\nScan type                        : Progressive\nBits/(Pixel*Frame)               : 0.333\nStream size                      : 561 MiB (80%)\nWriting library                  : XviD 62\nAudio\nID                               : 1\nFormat                           : AC-3\nFormat/Info                      : Audio Coding 3\nMode extension                   : CM (complete main)\nCodec ID                         : 2000\nDuration                         : 41mn 52s\nBit rate mode                    : Constant\nBit rate                         : 448 Kbps\nChannel(s)                       : 6 channels\nChannel positions                : Front: L C R, Side: L R, LFE\nSampling rate                    : 48.0 KHz\nBit depth                        : 16 bits\nVideo delay                      : 24ms\nStream size                      : 134 MiB (19%)\nAlignment                        : Split accross interleaves\nInterleave, duration             : 40 ms (1.00 video frame)\nInterleave, preload duration     : 500 ms\n\nScreen : &lt;a href=&quot;\nhttp://img684.imageshack.us/img684/2795/nieznajomy2011s1.jpg&quot; rel=&quot;nofollow&quot; target=&quot;_NEW&quot;&gt;\nhttp://img684.imageshack.us/img684/2795/nieznajomy2011s1.jpg&lt;/a&gt; &lt;a href=&quot;\nhttp://img193.imageshack.us/img193/412/nieznajomy2011s2.jpg&quot; rel=&quot;nofollow&quot; target=&quot;_NEW&quot;&gt;\nhttp://img193.imageshack.us/img193/412/nieznajomy2011s2.jpg&lt;/a&gt; &lt;a href=&quot;\nhttp://img225.imageshack.us/img225/6143/nieznajomy2011s3.jpg&quot; rel=&quot;nofollow&quot; target=&quot;_NEW&quot;&gt;\nhttp://img225.imageshack.us/img225/6143/nieznajomy2011s3.jpg&lt;/a&gt; &lt;a href=&quot;\nhttp://img199.imageshack.us/img199/9769/nieznajomy2011s4.jpg&quot; rel=&quot;nofollow&quot; target=&quot;_NEW&quot;&gt;\nhttp://img199.imageshack.us/img199/9769/nieznajomy2011s4.jpg&lt;/a&gt; &lt;a href=&quot;\nhttp://img571.imageshack.us/img571/6355/nieznajomy2011s5.jpg&quot; rel=&quot;nofollow&quot; target=&quot;_NEW&quot;&gt;\nhttp://img571.imageshack.us/img571/6355/nieznajomy2011s5.jpg&lt;/a&gt;","torrent":{"xt":"urn:btih:024bfbf44209f6f9a005d88a7dc007703a0ff9c3","amp;dn":"Nieznajomy+%2A2011%2A+%5BDVDRip.XviD-miguel%5D+%5BPL%5D","amp;tr":["udp%3A%2F%2Ftracker.openbittorrent.com%3A80","udp%3A%2F%2Fopen.demonii.com%3A1337","udp%3A%2F%2Ftracker.coppersurfer.tk%3A6969","udp%3A%2F%2Fexodus.desync.com%3A6969"],"infoHash":"024bfbf44209f6f9a005d88a7dc007703a0ff9c3","infoHashBuffer":{"type":"Buffer","data":[2,75,251,244,66,9,246,249,160,5,216,138,125,192,7,112,58,15,249,195]},"announce":[],"urlList":[]}}